<svg width="107" height="37" viewBox="0 0 107 37" fill="none" xmlns="http://www.w3.org/2000/svg">
<path d="M13.3761 29.4C9.64276 29.4 6.58943 28.1733 4.21609 25.72C1.86943 23.2667 0.696094 19.6933 0.696094 15C0.696094 10.28 1.88276 6.70667 4.25609 4.28C6.65609 1.85333 9.73609 0.639998 13.4961 0.639998C17.2828 0.639998 20.3361 1.84 22.6561 4.24C24.9761 6.61333 26.1361 10.2267 26.1361 15.08C26.1361 19.9067 24.9494 23.5067 22.5761 25.88C20.2028 28.2267 17.1361 29.4 13.3761 29.4ZM13.4161 8.32C12.1361 8.32 11.0561 8.90667 10.1761 10.08C9.32276 11.2533 8.89609 12.9067 8.89609 15.04C8.89609 17.1467 9.30943 18.7733 10.1361 19.92C10.9628 21.04 12.0428 21.6 13.3761 21.6C14.7361 21.6 15.8294 21.0267 16.6561 19.88C17.5094 18.7333 17.9361 17.0933 17.9361 14.96C17.9361 12.8267 17.4961 11.1867 16.6161 10.04C15.7628 8.89333 14.6961 8.32 13.4161 8.32ZM36.5077 29C33.921 29 31.921 28.1733 30.5077 26.52C29.0943 24.84 28.3877 22.3733 28.3877 19.12C28.3877 15.84 29.3077 13.28 31.1477 11.44C33.0143 9.57333 35.481 8.64 38.5477 8.64C41.641 8.64 44.1877 9.32 46.1877 10.68V30.6C46.1877 32.5733 45.3877 34.08 43.7877 35.12C42.1877 36.1867 40.1343 36.72 37.6277 36.72C35.121 36.72 32.881 36.4 30.9077 35.76C30.641 35.12 30.5077 34.5467 30.5077 34.04C30.5077 32.3333 30.7877 31.08 31.3477 30.28C33.1343 31.0533 35.041 31.44 37.0677 31.44C38.5343 31.44 39.2677 30.92 39.2677 29.88V28.68C38.121 28.8933 37.201 29 36.5077 29ZM38.3477 15.16C36.561 15.16 35.6677 16.5067 35.6677 19.2C35.6677 20.88 36.0143 21.9733 36.7077 22.48C37.161 22.8267 37.6143 23 38.0677 23C38.521 23 38.921 22.96 39.2677 22.88V15.28C38.9477 15.2 38.641 15.16 38.3477 15.16ZM57.1327 29C54.546 29 52.546 28.1733 51.1327 26.52C49.7193 24.84 49.0127 22.3733 49.0127 19.12C49.0127 15.84 49.9327 13.28 51.7727 11.44C53.6393 9.57333 56.106 8.64 59.1727 8.64C62.266 8.64 64.8127 9.32 66.8127 10.68V30.6C66.8127 32.5733 66.0127 34.08 64.4127 35.12C62.8127 36.1867 60.7593 36.72 58.2527 36.72C55.746 36.72 53.506 36.4 51.5327 35.76C51.266 35.12 51.1327 34.5467 51.1327 34.04C51.1327 32.3333 51.4127 31.08 51.9727 30.28C53.7593 31.0533 55.666 31.44 57.6927 31.44C59.1593 31.44 59.8927 30.92 59.8927 29.88V28.68C58.746 28.8933 57.826 29 57.1327 29ZM58.9727 15.16C57.186 15.16 56.2927 16.5067 56.2927 19.2C56.2927 20.88 56.6393 21.9733 57.3327 22.48C57.786 22.8267 58.2393 23 58.6927 23C59.146 23 59.546 22.96 59.8927 22.88V15.28C59.5727 15.2 59.266 15.16 58.9727 15.16ZM85.5177 27.92C83.8377 28.9067 81.6777 29.4 79.0377 29.4C76.3977 29.4 74.171 28.5067 72.3577 26.72C70.5443 24.9067 69.6377 22.4133 69.6377 19.24C69.6377 16.04 70.5043 13.4667 72.2377 11.52C73.9977 9.57333 76.211 8.6 78.8777 8.6C81.5443 8.6 83.5977 9.28 85.0377 10.64C86.5043 12 87.2377 13.6533 87.2377 15.6C87.2377 19.92 84.7577 22.08 79.7977 22.08H77.0377C77.0377 22.88 77.251 23.44 77.6777 23.76C78.131 24.0533 78.7843 24.2 79.6377 24.2C81.5043 24.2 83.2777 23.7733 84.9577 22.92C84.9843 22.8933 85.1043 23.08 85.3177 23.48C85.9577 24.6267 86.2777 25.6 86.2777 26.4C86.2777 27.1733 86.0243 27.68 85.5177 27.92ZM80.5177 16.36C80.5177 15.24 79.971 14.68 78.8777 14.68C78.371 14.68 77.931 14.84 77.5577 15.16C77.211 15.4533 77.0377 15.8933 77.0377 16.48V17.72H79.1977C80.0777 17.72 80.5177 17.2667 80.5177 16.36ZM104.971 27.92C103.291 28.9067 101.131 29.4 98.4908 29.4C95.8508 29.4 93.6241 28.5067 91.8108 26.72C89.9974 24.9067 89.0908 22.4133 89.0908 19.24C89.0908 16.04 89.9574 13.4667 91.6908 11.52C93.4508 9.57333 95.6641 8.6 98.3308 8.6C100.997 8.6 103.051 9.28 104.491 10.64C105.957 12 106.691 13.6533 106.691 15.6C106.691 19.92 104.211 22.08 99.2508 22.08H96.4908C96.4908 22.88 96.7041 23.44 97.1308 23.76C97.5841 24.0533 98.2374 24.2 99.0908 24.2C100.957 24.2 102.731 23.7733 104.411 22.92C104.437 22.8933 104.557 23.08 104.771 23.48C105.411 24.6267 105.731 25.6 105.731 26.4C105.731 27.1733 105.477 27.68 104.971 27.92ZM99.9708 16.36C99.9708 15.24 99.4241 14.68 98.3308 14.68C97.8241 14.68 97.3841 14.84 97.0108 15.16C96.6641 15.4533 96.4908 15.8933 96.4908 16.48V17.72H98.6508C99.5308 17.72 99.9708 17.2667 99.9708 16.36Z" fill="#FF7E00"/>
</svg>
