<svg width="24" height="46" viewBox="0 0 24 46" fill="none" xmlns="http://www.w3.org/2000/svg">
<path d="M6.57375 37.08C4.14708 37.08 2.93375 36.8133 2.93375 36.28V10.36C2.93375 9.45333 3.34708 9 4.17375 9H11.2138C15.1604 9 18.0004 9.81333 19.7338 11.44C21.4938 13.0667 22.3738 15.4267 22.3738 18.52C22.3738 21.08 21.5471 23.4267 19.8938 25.56C19.0671 26.6267 17.8538 27.48 16.2538 28.12C14.6538 28.76 12.7871 29.08 10.6538 29.08V36.24C10.6538 36.56 10.1471 36.7867 9.13375 36.92C8.14708 37.0267 7.29375 37.08 6.57375 37.08ZM10.6538 15.96V22.28H11.1738C12.1071 22.28 12.8938 21.9867 13.5338 21.4C14.1738 20.8133 14.4938 19.9867 14.4938 18.92C14.4938 17.8533 14.2671 17.0933 13.8138 16.64C13.3871 16.1867 12.6138 15.96 11.4938 15.96H10.6538Z" fill="#FF7E00"/>
<path d="M1.42578 19.2852C2.47236 16.4071 6.54353 9.89742 13.8277 7.51123C10.5624 10.651 4.14687 16.7211 1.42578 19.2852Z" fill="#FFF8D8" stroke="black" stroke-width="0.1"/>
<path d="M13.8992 7.4181L2.39138 7.19175L1.24956 19.3538C4.98137 12.5654 7.67654 9.82084 13.8992 7.4181Z" fill="#0094DF" stroke="black" stroke-width="0.1"/>
<path d="M13.8992 7.4181L2.39138 7.19175L1.24956 19.3538C4.98137 12.5654 7.67654 9.82084 13.8992 7.4181Z" fill="#0094DF" stroke="black" stroke-width="0.1"/>
<path d="M2.3679 7.22172L2.99584 16.3023" stroke="black" stroke-width="0.1"/>
<path d="M2.43632 7.25884L5.20537 13.3228" stroke="black" stroke-width="0.1"/>
<path d="M2.36787 7.1784L6.79974 11.5871" stroke="black" stroke-width="0.1"/>
<path d="M2.36769 7.27769L8.54545 10.1456" stroke="black" stroke-width="0.1"/>
<path d="M2.40025 7.25148L11.8388 8.31499" stroke="black" stroke-width="0.1"/>
<path d="M12.886 7.98218C12.8337 12.0115 10.6254 19.6933 2.21094 18.1863" stroke="#0094DF" stroke-width="0.3"/>
</svg>
