<svg width="15" height="15" viewBox="0 0 15 15" fill="none" xmlns="http://www.w3.org/2000/svg">
<path d="M12.4535 5.95618C12.4535 8.69339 10.2345 10.9124 7.49725 10.9124C4.76003 10.9124 2.54108 8.69339 2.54108 5.95618C2.54108 3.21896 4.76003 1 7.49725 1C10.2345 1 12.4535 3.21896 12.4535 5.95618Z" stroke="#FF7E00" stroke-linecap="round" stroke-linejoin="round"/>
<path d="M7.70006 3.26524L8.38276 4.63859C8.39803 4.67332 8.42224 4.70338 8.45292 4.7257C8.4836 4.74801 8.51966 4.76178 8.55741 4.7656L10.0737 4.99582C10.117 5.00146 10.1578 5.01933 10.1914 5.04733C10.225 5.07533 10.2499 5.11231 10.2632 5.15394C10.2765 5.19558 10.2777 5.24015 10.2666 5.28243C10.2556 5.32472 10.2327 5.36298 10.2007 5.39274L9.08134 6.45649C9.06465 6.48833 9.05593 6.52374 9.05593 6.55969C9.05593 6.59564 9.06465 6.63105 9.08134 6.66289L9.29568 8.17119C9.30483 8.21478 9.30113 8.2601 9.28503 8.30163C9.26893 8.34317 9.24113 8.37914 9.205 8.40519C9.16886 8.43124 9.12595 8.44625 9.08145 8.4484C9.03696 8.45054 8.9928 8.43973 8.95433 8.41728L7.6048 7.70282C7.56987 7.68704 7.53198 7.67888 7.49366 7.67888C7.45533 7.67888 7.41745 7.68704 7.38252 7.70282L6.03299 8.41728C5.99452 8.43973 5.95035 8.45054 5.90586 8.4484C5.86137 8.44625 5.81845 8.43124 5.78232 8.40519C5.74618 8.37914 5.71838 8.34317 5.70229 8.30163C5.68619 8.2601 5.68249 8.21478 5.69164 8.17119L5.94567 6.66289C5.95659 6.62788 5.95868 6.59071 5.95176 6.5547C5.94483 6.51869 5.9291 6.48495 5.90597 6.45649L4.78666 5.3848C4.75697 5.35473 4.73613 5.31706 4.72642 5.27593C4.71672 5.23479 4.71853 5.19178 4.73165 5.15161C4.74476 5.11144 4.76869 5.07565 4.80079 5.04817C4.8329 5.02069 4.87195 5.00258 4.91367 4.99582L6.42991 4.77354C6.46766 4.76972 6.50371 4.75595 6.5344 4.73364C6.56508 4.71132 6.58929 4.68126 6.60455 4.64653L7.28726 3.27318C7.30553 3.2343 7.33431 3.20131 7.37035 3.17794C7.40638 3.15457 7.44824 3.14174 7.49119 3.14091C7.53414 3.14009 7.57646 3.15129 7.61337 3.17327C7.65028 3.19524 7.68031 3.2271 7.70006 3.26524Z" stroke="#FF7E00" stroke-linecap="round" stroke-linejoin="round"/>
<path d="M3.20402 8.38721L1 12.2047L3.3815 11.5666L4.01962 13.9481L5.93194 10.6359" stroke="#FF7E00" stroke-linecap="round" stroke-linejoin="round"/>
<path d="M11.7959 8.38721L13.9999 12.2047L11.6184 11.5666L10.9803 13.9481L9.06799 10.6359" stroke="#FF7E00" stroke-linecap="round" stroke-linejoin="round"/>
</svg>
