<svg width="480" height="110" viewBox="0 0 480 110" fill="none" xmlns="http://www.w3.org/2000/svg">
<path d="M33.5464 89.96C24.5864 89.96 17.2584 87.016 11.5624 81.128C5.93038 75.24 3.11438 66.664 3.11438 55.4C3.11438 44.072 5.96238 35.496 11.6584 29.672C17.4184 23.848 24.8104 20.936 33.8344 20.936C42.9224 20.936 50.2504 23.816 55.8184 29.576C61.3864 35.272 64.1704 43.944 64.1704 55.592C64.1704 67.176 61.3224 75.816 55.6264 81.512C49.9304 87.144 42.5704 89.96 33.5464 89.96ZM33.6424 39.368C30.5704 39.368 27.9784 40.776 25.8664 43.592C23.8184 46.408 22.7944 50.376 22.7944 55.496C22.7944 60.552 23.7864 64.456 25.7704 67.208C27.7544 69.896 30.3464 71.24 33.5464 71.24C36.8104 71.24 39.4344 69.864 41.4184 67.112C43.4664 64.36 44.4904 60.424 44.4904 55.304C44.4904 50.184 43.4344 46.248 41.3224 43.496C39.2744 40.744 36.7144 39.368 33.6424 39.368ZM89.0621 89C82.8541 89 78.0541 87.016 74.6621 83.048C71.2701 79.016 69.5741 73.096 69.5741 65.288C69.5741 57.416 71.7821 51.272 76.1981 46.856C80.6781 42.376 86.5981 40.136 93.9581 40.136C101.382 40.136 107.494 41.768 112.294 45.032V92.84C112.294 97.576 110.374 101.192 106.534 103.688C102.694 106.248 97.7661 107.528 91.7501 107.528C85.7341 107.528 80.3581 106.76 75.6221 105.224C74.9821 103.688 74.6621 102.312 74.6621 101.096C74.6621 97 75.3341 93.992 76.6781 92.072C80.9661 93.928 85.5421 94.856 90.4061 94.856C93.9261 94.856 95.6861 93.608 95.6861 91.112V88.232C92.9341 88.744 90.7261 89 89.0621 89ZM93.4781 55.784C89.1901 55.784 87.0461 59.016 87.0461 65.48C87.0461 69.512 87.8781 72.136 89.5421 73.352C90.6301 74.184 91.7181 74.6 92.8061 74.6C93.8941 74.6 94.8541 74.504 95.6861 74.312V56.072C94.9181 55.88 94.1821 55.784 93.4781 55.784ZM138.562 89C132.354 89 127.554 87.016 124.162 83.048C120.77 79.016 119.074 73.096 119.074 65.288C119.074 57.416 121.282 51.272 125.698 46.856C130.178 42.376 136.098 40.136 143.458 40.136C150.882 40.136 156.994 41.768 161.794 45.032V92.84C161.794 97.576 159.874 101.192 156.034 103.688C152.194 106.248 147.266 107.528 141.25 107.528C135.234 107.528 129.858 106.76 125.122 105.224C124.482 103.688 124.162 102.312 124.162 101.096C124.162 97 124.834 93.992 126.178 92.072C130.466 93.928 135.042 94.856 139.906 94.856C143.426 94.856 145.186 93.608 145.186 91.112V88.232C142.434 88.744 140.226 89 138.562 89ZM142.978 55.784C138.69 55.784 136.546 59.016 136.546 65.48C136.546 69.512 137.378 72.136 139.042 73.352C140.13 74.184 141.218 74.6 142.306 74.6C143.394 74.6 144.354 74.504 145.186 74.312V56.072C144.418 55.88 143.682 55.784 142.978 55.784ZM206.686 86.408C202.654 88.776 197.47 89.96 191.134 89.96C184.798 89.96 179.454 87.816 175.102 83.528C170.75 79.176 168.574 73.192 168.574 65.576C168.574 57.896 170.654 51.72 174.814 47.048C179.038 42.376 184.35 40.04 190.75 40.04C197.15 40.04 202.078 41.672 205.534 44.936C209.054 48.2 210.814 52.168 210.814 56.84C210.814 67.208 204.862 72.392 192.958 72.392H186.334C186.334 74.312 186.846 75.656 187.87 76.424C188.958 77.128 190.526 77.48 192.574 77.48C197.054 77.48 201.31 76.456 205.342 74.408C205.406 74.344 205.694 74.792 206.206 75.752C207.742 78.504 208.51 80.84 208.51 82.76C208.51 84.616 207.902 85.832 206.686 86.408ZM194.686 58.664C194.686 55.976 193.374 54.632 190.75 54.632C189.534 54.632 188.478 55.016 187.582 55.784C186.75 56.488 186.334 57.544 186.334 58.952V61.928H191.518C193.63 61.928 194.686 60.84 194.686 58.664ZM253.374 86.408C249.342 88.776 244.158 89.96 237.822 89.96C231.486 89.96 226.142 87.816 221.79 83.528C217.438 79.176 215.262 73.192 215.262 65.576C215.262 57.896 217.342 51.72 221.502 47.048C225.726 42.376 231.038 40.04 237.438 40.04C243.838 40.04 248.766 41.672 252.222 44.936C255.742 48.2 257.502 52.168 257.502 56.84C257.502 67.208 251.55 72.392 239.646 72.392H233.022C233.022 74.312 233.534 75.656 234.558 76.424C235.646 77.128 237.214 77.48 239.262 77.48C243.742 77.48 247.998 76.456 252.03 74.408C252.094 74.344 252.382 74.792 252.894 75.752C254.43 78.504 255.198 80.84 255.198 82.76C255.198 84.616 254.59 85.832 253.374 86.408ZM241.374 58.664C241.374 55.976 240.062 54.632 237.438 54.632C236.222 54.632 235.166 55.016 234.27 55.784C233.438 56.488 233.022 57.544 233.022 58.952V61.928H238.206C240.318 61.928 241.374 60.84 241.374 58.664ZM266.749 65.576C267.965 66.536 270.045 67.848 272.989 69.512C275.997 71.176 278.845 72.008 281.533 72.008C284.285 72.008 285.661 70.952 285.661 68.84C285.661 67.88 285.277 67.048 284.509 66.344C283.741 65.576 282.333 64.712 280.285 63.752C278.237 62.792 276.701 62.056 275.677 61.544C274.653 60.968 273.277 60.072 271.549 58.856C269.885 57.576 268.605 56.264 267.709 54.92C265.149 51.272 263.869 46.632 263.869 41C263.869 35.368 265.949 30.632 270.109 26.792C274.333 22.888 279.837 20.936 286.621 20.936C291.229 20.936 295.485 21.448 299.389 22.472C303.293 23.432 305.309 24.712 305.437 26.312C305.437 26.504 305.437 26.696 305.437 26.888C305.437 29.128 304.733 31.976 303.325 35.432C301.917 38.824 300.925 40.712 300.349 41.096C296.253 38.984 292.573 37.928 289.309 37.928C286.109 37.928 284.509 39.08 284.509 41.384C284.509 42.792 285.693 44.04 288.061 45.128C288.573 45.384 289.309 45.736 290.269 46.184C291.229 46.632 292.317 47.176 293.533 47.816C294.813 48.392 296.157 49.16 297.565 50.12C299.037 51.016 300.605 52.232 302.269 53.768C305.661 56.968 307.357 61.192 307.357 66.44C307.357 73.288 305.469 78.888 301.693 83.24C297.917 87.592 292.093 89.832 284.221 89.96C280.381 89.96 276.893 89.64 273.757 89C270.685 88.36 267.997 87.112 265.693 85.256C263.389 83.4 262.237 81.16 262.237 78.536C262.237 75.912 262.717 73.32 263.677 70.76C264.637 68.136 265.661 66.408 266.749 65.576ZM336.853 88.424C336.853 89.192 334.165 89.576 328.789 89.576C322.389 89.32 319.189 88.904 319.189 88.328V54.344H314.293C313.013 54.344 312.373 52.136 312.373 47.72C312.373 46.568 312.469 45.16 312.661 43.496C312.917 41.832 313.397 41 314.101 41H319.189V32.552C319.189 31.272 321.877 30.632 327.253 30.632C332.693 30.632 335.413 31.144 335.413 32.168V38.312L335.509 41H343.669C344.757 41 345.301 43.24 345.301 47.72C345.301 52.2 344.757 54.44 343.669 54.44H336.853V88.424ZM354.245 83.336C350.277 78.92 348.293 72.808 348.293 65C348.293 57.192 350.277 51.08 354.245 46.664C358.277 42.248 363.685 40.04 370.469 40.04C377.253 40.04 382.629 42.248 386.597 46.664C390.565 51.08 392.549 57.192 392.549 65C392.549 72.808 390.565 78.92 386.597 83.336C382.629 87.752 377.253 89.96 370.469 89.96C363.685 89.96 358.277 87.752 354.245 83.336ZM370.469 56.072C366.885 56.072 365.093 59.016 365.093 64.904C365.093 70.792 366.885 73.736 370.469 73.736C374.117 73.736 375.941 70.792 375.941 64.904C375.941 59.016 374.117 56.072 370.469 56.072ZM420.36 88.904C420.36 89.352 417.448 89.576 411.624 89.576C405.8 89.448 402.888 89.192 402.888 88.808V56.936H400.296C399.272 56.936 398.44 56.328 397.8 55.112C397.224 53.832 396.936 52.264 396.936 50.408C396.936 43.496 398.984 40.04 403.08 40.04C405.96 40.04 408.36 40.936 410.28 42.728C412.2 44.456 413.16 46.44 413.16 48.68C414.504 46.056 416.296 43.976 418.536 42.44C420.84 40.84 423.176 40.04 425.544 40.04C429.256 40.04 431.496 41 432.264 42.92C432.456 43.432 432.552 44.2 432.552 45.224C432.552 46.184 432.232 47.944 431.592 50.504C431.016 53.064 430.408 54.92 429.768 56.072C429.128 57.224 428.744 57.8 428.616 57.8C428.488 57.8 427.88 57.576 426.792 57.128C425.768 56.616 424.84 56.36 424.008 56.36C421.576 56.36 420.36 58.28 420.36 62.12V88.904ZM473.686 86.408C469.654 88.776 464.47 89.96 458.134 89.96C451.798 89.96 446.454 87.816 442.102 83.528C437.75 79.176 435.574 73.192 435.574 65.576C435.574 57.896 437.654 51.72 441.814 47.048C446.038 42.376 451.35 40.04 457.75 40.04C464.15 40.04 469.078 41.672 472.534 44.936C476.054 48.2 477.814 52.168 477.814 56.84C477.814 67.208 471.862 72.392 459.958 72.392H453.334C453.334 74.312 453.846 75.656 454.87 76.424C455.958 77.128 457.526 77.48 459.574 77.48C464.054 77.48 468.31 76.456 472.342 74.408C472.406 74.344 472.694 74.792 473.206 75.752C474.742 78.504 475.51 80.84 475.51 82.76C475.51 84.616 474.902 85.832 473.686 86.408ZM461.686 58.664C461.686 55.976 460.374 54.632 457.75 54.632C456.534 54.632 455.478 55.016 454.582 55.784C453.75 56.488 453.334 57.544 453.334 58.952V61.928H458.518C460.63 61.928 461.686 60.84 461.686 58.664Z" fill="#FF7E00"/>
<path d="M261.327 46.9984C263.769 40.2829 273.269 25.0937 290.265 19.5259C282.646 26.8519 267.676 41.0155 261.327 46.9984Z" fill="#FFF8D8" stroke="black" stroke-width="0.1"/>
<path d="M290.431 19.3086L263.58 18.7805L260.916 47.1585C269.623 31.319 275.912 24.915 290.431 19.3086Z" fill="#0094DF" stroke="black" stroke-width="0.1"/>
<path d="M290.431 19.3086L263.58 18.7805L260.916 47.1585C269.623 31.319 275.912 24.915 290.431 19.3086Z" fill="#0094DF" stroke="black" stroke-width="0.1"/>
<path d="M263.524 18.8508L264.99 40.0387" stroke="black" stroke-width="0.1"/>
<path d="M263.685 18.9373L270.146 33.0866" stroke="black" stroke-width="0.1"/>
<path d="M263.525 18.7492L273.866 29.0363" stroke="black" stroke-width="0.1"/>
<path d="M263.525 18.9809L277.94 25.6726" stroke="black" stroke-width="0.1"/>
<path d="M263.601 18.9203L285.624 21.4018" stroke="black" stroke-width="0.1"/>
<path d="M288.067 20.6248C287.945 30.0265 282.792 47.9508 263.158 44.4343" stroke="#0094DF" stroke-width="0.5"/>
</svg>
