<svg width="15" height="15" viewBox="0 0 15 15" fill="none" xmlns="http://www.w3.org/2000/svg">
<path d="M7.01003 13.5699C6.49163 13.9037 5.8746 14.05 5.26151 13.9845C4.64843 13.919 4.07622 13.6457 3.64003 13.2099L3.26003 12.8299C3.09149 12.6595 2.99695 12.4296 2.99695 12.1899C2.99695 11.9503 3.09149 11.7203 3.26003 11.5499L4.86003 9.95991C5.0287 9.79198 5.25702 9.6977 5.49503 9.6977C5.73304 9.6977 5.96136 9.79198 6.13003 9.95991C6.3004 10.1285 6.53038 10.223 6.77003 10.223C7.00968 10.223 7.23966 10.1285 7.41003 9.95991L9.96003 7.40991C10.1286 7.23954 10.2231 7.00956 10.2231 6.76991C10.2231 6.53026 10.1286 6.30028 9.96003 6.12991C9.7921 5.96124 9.69782 5.73292 9.69782 5.49491C9.69782 5.2569 9.7921 5.02858 9.96003 4.85991L11.5 3.25991C11.6704 3.09136 11.9004 2.99683 12.14 2.99683C12.3797 2.99683 12.6097 3.09136 12.78 3.25991L13.16 3.63991C13.6036 4.06995 13.8863 4.63911 13.9609 5.25241C14.0356 5.86571 13.8976 6.48606 13.57 7.00991C11.8263 9.59869 9.59881 11.8262 7.01003 13.5699Z" stroke="#FF7E00" stroke-linecap="round" stroke-linejoin="round"/>
<path d="M7.5 1C6.64641 1 5.80117 1.16813 5.01256 1.49478C4.22394 1.82144 3.50739 2.30023 2.90381 2.90381C2.30022 3.50739 1.82144 4.22394 1.49478 5.01256C1.16813 5.80117 1 6.64641 1 7.5" stroke="#FF7E00" stroke-linecap="round" stroke-linejoin="round"/>
<path d="M7.5 3.5C6.43913 3.5 5.42172 3.92143 4.67157 4.67157C3.92143 5.42172 3.5 6.43913 3.5 7.5" stroke="#FF7E00" stroke-linecap="round" stroke-linejoin="round"/>
</svg>
