<svg width="190" height="46" viewBox="0 0 190 46" fill="none" xmlns="http://www.w3.org/2000/svg">
<path d="M14.3292 37.4C10.5959 37.4 7.54255 36.1733 5.16922 33.72C2.82255 31.2667 1.64922 27.6933 1.64922 23C1.64922 18.28 2.83589 14.7067 5.20922 12.28C7.60922 9.85333 10.6892 8.64 14.4492 8.64C18.2359 8.64 21.2892 9.84 23.6092 12.24C25.9292 14.6133 27.0892 18.2267 27.0892 23.08C27.0892 27.9067 25.9026 31.5067 23.5292 33.88C21.1559 36.2267 18.0892 37.4 14.3292 37.4ZM14.3692 16.32C13.0892 16.32 12.0092 16.9067 11.1292 18.08C10.2759 19.2533 9.84922 20.9067 9.84922 23.04C9.84922 25.1467 10.2626 26.7733 11.0892 27.92C11.9159 29.04 12.9959 29.6 14.3292 29.6C15.6892 29.6 16.7826 29.0267 17.6092 27.88C18.4626 26.7333 18.8892 25.0933 18.8892 22.96C18.8892 20.8267 18.4492 19.1867 17.5692 18.04C16.7159 16.8933 15.6492 16.32 14.3692 16.32ZM37.4608 37C34.8741 37 32.8741 36.1733 31.4608 34.52C30.0474 32.84 29.3408 30.3733 29.3408 27.12C29.3408 23.84 30.2608 21.28 32.1008 19.44C33.9674 17.5733 36.4341 16.64 39.5008 16.64C42.5941 16.64 45.1408 17.32 47.1408 18.68V38.6C47.1408 40.5733 46.3408 42.08 44.7408 43.12C43.1408 44.1867 41.0874 44.72 38.5808 44.72C36.0741 44.72 33.8341 44.4 31.8608 43.76C31.5941 43.12 31.4608 42.5467 31.4608 42.04C31.4608 40.3333 31.7408 39.08 32.3008 38.28C34.0874 39.0533 35.9941 39.44 38.0208 39.44C39.4874 39.44 40.2208 38.92 40.2208 37.88V36.68C39.0741 36.8933 38.1541 37 37.4608 37ZM39.3008 23.16C37.5141 23.16 36.6208 24.5067 36.6208 27.2C36.6208 28.88 36.9674 29.9733 37.6608 30.48C38.1141 30.8267 38.5674 31 39.0208 31C39.4741 31 39.8741 30.96 40.2208 30.88V23.28C39.9008 23.2 39.5941 23.16 39.3008 23.16ZM58.0858 37C55.4991 37 53.4991 36.1733 52.0858 34.52C50.6724 32.84 49.9658 30.3733 49.9658 27.12C49.9658 23.84 50.8858 21.28 52.7258 19.44C54.5924 17.5733 57.0591 16.64 60.1258 16.64C63.2191 16.64 65.7658 17.32 67.7658 18.68V38.6C67.7658 40.5733 66.9658 42.08 65.3658 43.12C63.7658 44.1867 61.7124 44.72 59.2058 44.72C56.6991 44.72 54.4591 44.4 52.4858 43.76C52.2191 43.12 52.0858 42.5467 52.0858 42.04C52.0858 40.3333 52.3658 39.08 52.9258 38.28C54.7124 39.0533 56.6191 39.44 58.6458 39.44C60.1124 39.44 60.8458 38.92 60.8458 37.88V36.68C59.6991 36.8933 58.7791 37 58.0858 37ZM59.9258 23.16C58.1391 23.16 57.2458 24.5067 57.2458 27.2C57.2458 28.88 57.5924 29.9733 58.2858 30.48C58.7391 30.8267 59.1924 31 59.6458 31C60.0991 31 60.4991 30.96 60.8458 30.88V23.28C60.5258 23.2 60.2191 23.16 59.9258 23.16ZM86.4708 35.92C84.7908 36.9067 82.6308 37.4 79.9908 37.4C77.3508 37.4 75.1241 36.5067 73.3108 34.72C71.4974 32.9067 70.5908 30.4133 70.5908 27.24C70.5908 24.04 71.4574 21.4667 73.1908 19.52C74.9508 17.5733 77.1641 16.6 79.8308 16.6C82.4974 16.6 84.5508 17.28 85.9908 18.64C87.4574 20 88.1908 21.6533 88.1908 23.6C88.1908 27.92 85.7108 30.08 80.7508 30.08H77.9908C77.9908 30.88 78.2041 31.44 78.6308 31.76C79.0841 32.0533 79.7374 32.2 80.5908 32.2C82.4574 32.2 84.2308 31.7733 85.9108 30.92C85.9374 30.8933 86.0574 31.08 86.2708 31.48C86.9108 32.6267 87.2308 33.6 87.2308 34.4C87.2308 35.1733 86.9774 35.68 86.4708 35.92ZM81.4708 24.36C81.4708 23.24 80.9241 22.68 79.8308 22.68C79.3241 22.68 78.8841 22.84 78.5108 23.16C78.1641 23.4533 77.9908 23.8933 77.9908 24.48V25.72H80.1508C81.0308 25.72 81.4708 25.2667 81.4708 24.36ZM105.924 35.92C104.244 36.9067 102.084 37.4 99.4439 37.4C96.8039 37.4 94.5772 36.5067 92.7639 34.72C90.9506 32.9067 90.0439 30.4133 90.0439 27.24C90.0439 24.04 90.9106 21.4667 92.6439 19.52C94.4039 17.5733 96.6172 16.6 99.2839 16.6C101.951 16.6 104.004 17.28 105.444 18.64C106.911 20 107.644 21.6533 107.644 23.6C107.644 27.92 105.164 30.08 100.204 30.08H97.4439C97.4439 30.88 97.6572 31.44 98.0839 31.76C98.5372 32.0533 99.1906 32.2 100.044 32.2C101.911 32.2 103.684 31.7733 105.364 30.92C105.391 30.8933 105.511 31.08 105.724 31.48C106.364 32.6267 106.684 33.6 106.684 34.4C106.684 35.1733 106.431 35.68 105.924 35.92ZM100.924 24.36C100.924 23.24 100.377 22.68 99.2839 22.68C98.7772 22.68 98.3372 22.84 97.9639 23.16C97.6172 23.4533 97.4439 23.8933 97.4439 24.48V25.72H99.6039C100.484 25.72 100.924 25.2667 100.924 24.36ZM125.417 9C125.87 9 126.097 10.1867 126.097 12.56C126.097 14.9067 125.87 16.08 125.417 16.08H118.097V20.64H122.977C123.43 20.64 123.657 21.68 123.657 23.76C123.657 25.8133 123.444 26.84 123.017 26.84H118.097V36.48C118.097 36.8533 117.59 37.0933 116.577 37.2C115.59 37.3333 114.764 37.4 114.097 37.4L112.217 37.32C110.91 37.16 110.257 36.8933 110.257 36.52V10.04C110.257 9.61333 110.337 9.33333 110.497 9.2C110.684 9.06666 110.95 9 111.297 9H125.417ZM129.438 34.64C127.785 32.8 126.958 30.2533 126.958 27C126.958 23.7467 127.785 21.2 129.438 19.36C131.118 17.52 133.371 16.6 136.198 16.6C139.025 16.6 141.265 17.52 142.918 19.36C144.571 21.2 145.398 23.7467 145.398 27C145.398 30.2533 144.571 32.8 142.918 34.64C141.265 36.48 139.025 37.4 136.198 37.4C133.371 37.4 131.118 36.48 129.438 34.64ZM136.198 23.28C134.705 23.28 133.958 24.5067 133.958 26.96C133.958 29.4133 134.705 30.64 136.198 30.64C137.718 30.64 138.478 29.4133 138.478 26.96C138.478 24.5067 137.718 23.28 136.198 23.28ZM149.946 34.64C148.292 32.8 147.466 30.2533 147.466 27C147.466 23.7467 148.292 21.2 149.946 19.36C151.626 17.52 153.879 16.6 156.706 16.6C159.532 16.6 161.772 17.52 163.426 19.36C165.079 21.2 165.906 23.7467 165.906 27C165.906 30.2533 165.079 32.8 163.426 34.64C161.772 36.48 159.532 37.4 156.706 37.4C153.879 37.4 151.626 36.48 149.946 34.64ZM156.706 23.28C155.212 23.28 154.466 24.5067 154.466 26.96C154.466 29.4133 155.212 30.64 156.706 30.64C158.226 30.64 158.986 29.4133 158.986 26.96C158.986 24.5067 158.226 23.28 156.706 23.28ZM178.854 9.24C178.854 8.84 179.907 8.64 182.014 8.64C182.734 8.64 183.56 8.69333 184.494 8.8C185.454 8.88 185.934 9 185.934 9.16V30.24H187.334C188 30.24 188.44 30.84 188.654 32.04C188.707 32.3867 188.734 32.8667 188.734 33.48C188.734 34.0667 188.547 34.7867 188.174 35.64C187.64 36.8133 186.787 37.4 185.614 37.4C184.734 37.4 183.947 37.2267 183.254 36.88C182.587 36.5333 182.134 36.1733 181.894 35.8L181.534 35.28C180.067 36.6933 178.227 37.4 176.014 37.4C173.8 37.4 171.907 36.48 170.334 34.64C168.76 32.8 167.974 30.24 167.974 26.96C167.974 23.6533 168.8 21.1067 170.454 19.32C172.107 17.5067 174.174 16.6 176.654 16.6C177.374 16.6 178.107 16.68 178.854 16.84V9.24ZM177.534 23C176.04 23 175.294 24.3467 175.294 27.04C175.294 28.4 175.507 29.3867 175.934 30C176.36 30.5867 176.827 30.88 177.334 30.88C177.867 30.88 178.374 30.6533 178.854 30.2V23.4C178.4 23.1333 177.96 23 177.534 23Z" fill="#FF7E00"/>
<path d="M108.426 19.2854C109.472 16.4074 113.544 9.89766 120.828 7.51147C117.562 10.6512 111.147 16.7213 108.426 19.2854Z" fill="#FFF8D8" stroke="black" stroke-width="0.1"/>
<path d="M120.899 7.4181L109.391 7.19175L108.25 19.3538C111.981 12.5654 114.677 9.82084 120.899 7.4181Z" fill="#0094DF" stroke="black" stroke-width="0.1"/>
<path d="M120.899 7.4181L109.391 7.19175L108.25 19.3538C111.981 12.5654 114.677 9.82084 120.899 7.4181Z" fill="#0094DF" stroke="black" stroke-width="0.1"/>
<path d="M109.368 7.22196L109.996 16.3025" stroke="black" stroke-width="0.1"/>
<path d="M109.436 7.25908L112.205 13.3231" stroke="black" stroke-width="0.1"/>
<path d="M109.368 7.17865L113.8 11.5874" stroke="black" stroke-width="0.1"/>
<path d="M109.368 7.27794L115.546 10.1458" stroke="black" stroke-width="0.1"/>
<path d="M109.4 7.25173L118.839 8.31523" stroke="black" stroke-width="0.1"/>
<path d="M119.886 7.98218C119.834 12.0115 117.625 19.6933 109.211 18.1863" stroke="#0094DF" stroke-width="0.3"/>
</svg>
