<svg width="14" height="14" viewBox="0 0 14 14" fill="none" xmlns="http://www.w3.org/2000/svg">
<path d="M12.4135 12.3595V6.51758H1.86206V12.3595C1.86206 12.9118 2.30978 13.3595 2.86206 13.3595H11.4135C11.9658 13.3595 12.4135 12.9118 12.4135 12.3595Z" stroke="#FF7E00" stroke-linecap="round" stroke-linejoin="round"/>
<path d="M7.13794 13.3594V6.51562" stroke="#FF7E00" stroke-linecap="round" stroke-linejoin="round"/>
<path d="M13.2758 4.91675V5.51756C13.2758 6.06984 12.8281 6.51756 12.2758 6.51756H2C1.44772 6.51756 1 6.06984 1 5.51756V4.91675C1 4.36447 1.44772 3.91675 2 3.91675H12.2758C12.8281 3.91675 13.2758 4.36447 13.2758 4.91675Z" stroke="#FF7E00" stroke-linecap="round" stroke-linejoin="round"/>
<path d="M7.13807 3.91667C7.13807 3.04167 6.11724 1 4.58599 1C2.09488 1 3.00233 3.91667 4.19464 3.91667" stroke="#FF7E00" stroke-linecap="round" stroke-linejoin="round"/>
<path d="M7.13794 3.91667C7.13794 3.04167 8.15877 1 9.69002 1C12.1811 1 11.2736 3.91667 10.0814 3.91667" stroke="#FF7E00" stroke-linecap="round" stroke-linejoin="round"/>
</svg>
