<svg width="15" height="12" viewBox="0 0 15 12" fill="none" xmlns="http://www.w3.org/2000/svg">
<path d="M10.9988 10.9999C10.1698 10.9999 9.4978 10.3279 9.4978 9.4989C9.4978 8.6698 10.1698 7.9978 10.9988 7.9978C11.8279 7.9978 12.4999 8.6698 12.4999 9.4989C12.4999 10.3279 11.8279 10.9999 10.9988 10.9999Z" stroke="white" stroke-linecap="round" stroke-linejoin="round"/>
<path d="M3.99886 10.9999C3.16985 10.9999 2.4978 10.3279 2.4978 9.4989C2.4978 8.6699 3.16985 7.9978 3.99886 7.9978C4.82787 7.9978 5.49992 8.6699 5.49992 9.4989C5.49992 10.3279 4.82787 10.9999 3.99886 10.9999Z" stroke="white" stroke-linecap="round" stroke-linejoin="round"/>
<path d="M2.5 9.5H1V7.5C1 6.39543 1.89543 5.5 3 5.5H5C6.10457 5.5 7 6.39543 7 7.5V8C7 8.8284 7.67157 9.5 8.5 9.5H9.5H5.5" stroke="white" stroke-linecap="round" stroke-linejoin="round"/>
<path d="M12.5 9.5H13C13.5523 9.5 14.0119 9.0481 13.9079 8.5057C13.5767 6.77756 12.3659 5.5 10.5 5.5H10" stroke="white" stroke-linecap="round" stroke-linejoin="round"/>
<path d="M8.5 1H10V8.3785" stroke="white" stroke-linecap="round" stroke-linejoin="round"/>
<path d="M12 2H11C10.4477 2 10 2.44772 10 3C10 3.55228 10.4477 4 11 4H12V2Z" stroke="white" stroke-linecap="round" stroke-linejoin="round"/>
<path d="M2 5.5H4.5C5.05228 5.5 5.5 5.05228 5.5 4.5V2C5.5 1.44772 5.05228 1 4.5 1H2C1.44771 1 1 1.44772 1 2V4.5C1 5.05228 1.44771 5.5 2 5.5Z" stroke="white" stroke-linecap="round"/>
</svg>
