<svg width="14" height="15" viewBox="0 0 14 15" fill="none" xmlns="http://www.w3.org/2000/svg">
<path d="M5.19794 2.75L5.62794 1.64C5.70046 1.45206 5.82805 1.29041 5.99399 1.17621C6.15994 1.06201 6.3565 1.00059 6.55794 1H7.37794C7.57938 1.00059 7.77595 1.06201 7.94189 1.17621C8.10784 1.29041 8.23542 1.45206 8.30794 1.64L8.73794 2.75L10.1979 3.59L11.3779 3.41C11.5744 3.38333 11.7744 3.41567 11.9525 3.50292C12.1305 3.59017 12.2786 3.72838 12.3779 3.9L12.7779 4.6C12.8804 4.77435 12.9277 4.97568 12.9134 5.17742C12.8991 5.37916 12.824 5.57183 12.6979 5.73L11.9679 6.66V8.34L12.7179 9.27C12.844 9.42817 12.9191 9.62084 12.9334 9.82258C12.9477 10.0243 12.9004 10.2256 12.7979 10.4L12.3979 11.1C12.2986 11.2716 12.1505 11.4098 11.9725 11.4971C11.7944 11.5843 11.5944 11.6167 11.3979 11.59L10.2179 11.41L8.75794 12.25L8.32794 13.36C8.25542 13.5479 8.12784 13.7096 7.96189 13.8238C7.79595 13.938 7.59938 13.9994 7.39794 14H6.55794C6.3565 13.9994 6.15994 13.938 5.99399 13.8238C5.82805 13.7096 5.70046 13.5479 5.62794 13.36L5.19794 12.25L3.73794 11.41L2.55794 11.59C2.36146 11.6167 2.16148 11.5843 1.98342 11.4971C1.80537 11.4098 1.65727 11.2716 1.55794 11.1L1.15794 10.4C1.05544 10.2256 1.00822 10.0243 1.0225 9.82258C1.03678 9.62084 1.1119 9.42817 1.23794 9.27L1.96794 8.34V6.66L1.21794 5.73C1.0919 5.57183 1.01678 5.37916 1.0025 5.17742C0.988217 4.97568 1.03544 4.77435 1.13794 4.6L1.53794 3.9C1.63727 3.72838 1.78537 3.59017 1.96342 3.50292C2.14148 3.41567 2.34146 3.38333 2.53794 3.41L3.71794 3.59L5.19794 2.75ZM4.96794 7.5C4.96794 7.89556 5.08524 8.28224 5.305 8.61114C5.52477 8.94004 5.83712 9.19638 6.20257 9.34776C6.56803 9.49913 6.97016 9.53874 7.35812 9.46157C7.74608 9.3844 8.10245 9.19392 8.38216 8.91421C8.66186 8.63451 8.85234 8.27814 8.92951 7.89018C9.00668 7.50222 8.96708 7.10009 8.8157 6.73463C8.66433 6.36918 8.40798 6.05682 8.07908 5.83706C7.75018 5.6173 7.3635 5.5 6.96794 5.5C6.43751 5.5 5.9288 5.71071 5.55373 6.08579C5.17866 6.46086 4.96794 6.96957 4.96794 7.5Z" stroke="#FF7E00" stroke-linecap="round" stroke-linejoin="round"/>
</svg>
