<svg width="20" height="20" viewBox="0 0 20 20" fill="none" xmlns="http://www.w3.org/2000/svg">
<path d="M11 16V16.3303C11 16.741 10.9441 17.1326 10.8407 17.5H12.75C14.2692 17.5 15.5 16.2692 15.5 14.75V13.75C15.5 13.3358 15.1642 13 14.75 13C14.3358 13 14 13.3358 14 13.75V14.75C14 15.4408 13.4408 16 12.75 16H11Z" fill="#1F2937"/>
<path d="M6.52409 0L8.76135 1.20192C8.92795 1.29143 9.08698 1.39112 9.23784 1.5H12.75C13.4408 1.5 14 2.05921 14 2.75V3.75C14 4.16421 14.3358 4.5 14.75 4.5C15.1642 4.5 15.5 4.16421 15.5 3.75V2.75C15.5 1.23079 14.2692 0 12.75 0H6.52409Z" fill="#1F2937"/>
<path d="M4.05146 0.374499C2.2194 -0.609736 0 0.717341 0 2.79704V14.0804C0 15.0739 0.53587 15.9901 1.40178 16.4772L5.40178 18.7272C7.23494 19.7584 9.5 18.4337 9.5 16.3304V4.94596C9.5 3.93334 8.9435 3.00265 8.05146 2.52342L4.05146 0.374499Z" fill="#1F2937"/>
<path d="M19.2803 8.21967L17.2803 6.21967C16.9874 5.92678 16.5126 5.92678 16.2197 6.21967C15.9268 6.51256 15.9268 6.98744 16.2197 7.28033L16.9393 8H12.75C12.3358 8 12 8.33579 12 8.75C12 9.16421 12.3358 9.5 12.75 9.5H16.9393L16.2197 10.2197C15.9268 10.5126 15.9268 10.9874 16.2197 11.2803C16.5126 11.5732 16.9874 11.5732 17.2803 11.2803L19.2803 9.28033C19.5732 8.98744 19.5732 8.51256 19.2803 8.21967Z" fill="#1F2937"/>
</svg>
