<svg width="15" height="14" viewBox="0 0 15 14" fill="none" xmlns="http://www.w3.org/2000/svg">
<path d="M7.9882 1.31306L9.5782 4.52306C9.61437 4.60454 9.67125 4.67511 9.74319 4.72775C9.81513 4.78038 9.89961 4.81325 9.9882 4.82306L13.4982 5.34306C13.5999 5.35612 13.6957 5.39783 13.7745 5.46332C13.8533 5.5288 13.9119 5.61536 13.9433 5.71287C13.9748 5.81039 13.9778 5.91485 13.9521 6.01404C13.9265 6.11324 13.8731 6.20307 13.7982 6.27306L11.2682 8.78306C11.2037 8.84339 11.1552 8.9189 11.1273 9.00274C11.0993 9.08657 11.0928 9.17606 11.1082 9.26306L11.7182 12.793C11.7359 12.8945 11.7247 12.9988 11.686 13.0942C11.6473 13.1896 11.5826 13.2722 11.4992 13.3327C11.4159 13.3931 11.3172 13.4289 11.2145 13.4361C11.1118 13.4432 11.0091 13.4214 10.9182 13.373L7.7582 11.703C7.67729 11.6633 7.58834 11.6427 7.4982 11.6427C7.40806 11.6427 7.31912 11.6633 7.2382 11.703L4.0782 13.373C3.98729 13.4214 3.88464 13.4432 3.78193 13.4361C3.67922 13.4289 3.58057 13.3931 3.49722 13.3327C3.41386 13.2722 3.34914 13.1896 3.31042 13.0942C3.27171 12.9988 3.26054 12.8945 3.2782 12.793L3.8882 9.22306C3.90366 9.13606 3.89712 9.04657 3.86918 8.96274C3.84124 8.8789 3.79277 8.80339 3.7282 8.74306L1.1682 6.27306C1.09246 6.20116 1.0392 6.10883 1.01487 6.00728C0.99053 5.90572 0.996166 5.79928 1.03109 5.70086C1.06601 5.60244 1.12873 5.51626 1.21163 5.45275C1.29454 5.38925 1.39408 5.35114 1.4982 5.34306L5.0082 4.82306C5.0968 4.81325 5.18128 4.78038 5.25322 4.72775C5.32516 4.67511 5.38204 4.60454 5.4182 4.52306L7.0082 1.31306C7.0515 1.21957 7.12064 1.14042 7.20747 1.08495C7.29429 1.02947 7.39517 1 7.4982 1C7.60123 1 7.70212 1.02947 7.78894 1.08495C7.87576 1.14042 7.9449 1.21957 7.9882 1.31306Z" fill="#FFBB00" stroke="#FFBB00" stroke-linecap="round" stroke-linejoin="round"/>
</svg>
