<svg width="218" height="46" viewBox="0 0 218 46" fill="none" xmlns="http://www.w3.org/2000/svg">
<path d="M14.0675 37.4C10.3342 37.4 7.28083 36.1733 4.9075 33.72C2.56083 31.2667 1.3875 27.6933 1.3875 23C1.3875 18.28 2.57417 14.7067 4.9475 12.28C7.3475 9.85333 10.4275 8.64 14.1875 8.64C17.9742 8.64 21.0275 9.84 23.3475 12.24C25.6675 14.6133 26.8275 18.2267 26.8275 23.08C26.8275 27.9067 25.6408 31.5067 23.2675 33.88C20.8942 36.2267 17.8275 37.4 14.0675 37.4ZM14.1075 16.32C12.8275 16.32 11.7475 16.9067 10.8675 18.08C10.0142 19.2533 9.5875 20.9067 9.5875 23.04C9.5875 25.1467 10.0008 26.7733 10.8275 27.92C11.6542 29.04 12.7342 29.6 14.0675 29.6C15.4275 29.6 16.5208 29.0267 17.3475 27.88C18.2008 26.7333 18.6275 25.0933 18.6275 22.96C18.6275 20.8267 18.1875 19.1867 17.3075 18.04C16.4542 16.8933 15.3875 16.32 14.1075 16.32ZM37.1991 37C34.6124 37 32.6124 36.1733 31.1991 34.52C29.7857 32.84 29.0791 30.3733 29.0791 27.12C29.0791 23.84 29.9991 21.28 31.8391 19.44C33.7057 17.5733 36.1724 16.64 39.2391 16.64C42.3324 16.64 44.8791 17.32 46.8791 18.68V38.6C46.8791 40.5733 46.0791 42.08 44.4791 43.12C42.8791 44.1867 40.8257 44.72 38.3191 44.72C35.8124 44.72 33.5724 44.4 31.5991 43.76C31.3324 43.12 31.1991 42.5467 31.1991 42.04C31.1991 40.3333 31.4791 39.08 32.0391 38.28C33.8257 39.0533 35.7324 39.44 37.7591 39.44C39.2257 39.44 39.9591 38.92 39.9591 37.88V36.68C38.8124 36.8933 37.8924 37 37.1991 37ZM39.0391 23.16C37.2524 23.16 36.3591 24.5067 36.3591 27.2C36.3591 28.88 36.7057 29.9733 37.3991 30.48C37.8524 30.8267 38.3057 31 38.7591 31C39.2124 31 39.6124 30.96 39.9591 30.88V23.28C39.6391 23.2 39.3324 23.16 39.0391 23.16ZM57.8241 37C55.2374 37 53.2374 36.1733 51.8241 34.52C50.4107 32.84 49.7041 30.3733 49.7041 27.12C49.7041 23.84 50.6241 21.28 52.4641 19.44C54.3307 17.5733 56.7974 16.64 59.8641 16.64C62.9574 16.64 65.5041 17.32 67.5041 18.68V38.6C67.5041 40.5733 66.7041 42.08 65.1041 43.12C63.5041 44.1867 61.4507 44.72 58.9441 44.72C56.4374 44.72 54.1974 44.4 52.2241 43.76C51.9574 43.12 51.8241 42.5467 51.8241 42.04C51.8241 40.3333 52.1041 39.08 52.6641 38.28C54.4507 39.0533 56.3574 39.44 58.3841 39.44C59.8507 39.44 60.5841 38.92 60.5841 37.88V36.68C59.4374 36.8933 58.5174 37 57.8241 37ZM59.6641 23.16C57.8774 23.16 56.9841 24.5067 56.9841 27.2C56.9841 28.88 57.3307 29.9733 58.0241 30.48C58.4774 30.8267 58.9307 31 59.3841 31C59.8374 31 60.2374 30.96 60.5841 30.88V23.28C60.2641 23.2 59.9574 23.16 59.6641 23.16ZM86.2091 35.92C84.5291 36.9067 82.3691 37.4 79.7291 37.4C77.0891 37.4 74.8624 36.5067 73.0491 34.72C71.2357 32.9067 70.3291 30.4133 70.3291 27.24C70.3291 24.04 71.1957 21.4667 72.9291 19.52C74.6891 17.5733 76.9024 16.6 79.5691 16.6C82.2357 16.6 84.2891 17.28 85.7291 18.64C87.1957 20 87.9291 21.6533 87.9291 23.6C87.9291 27.92 85.4491 30.08 80.4891 30.08H77.7291C77.7291 30.88 77.9424 31.44 78.3691 31.76C78.8224 32.0533 79.4757 32.2 80.3291 32.2C82.1957 32.2 83.9691 31.7733 85.6491 30.92C85.6757 30.8933 85.7957 31.08 86.0091 31.48C86.6491 32.6267 86.9691 33.6 86.9691 34.4C86.9691 35.1733 86.7157 35.68 86.2091 35.92ZM81.2091 24.36C81.2091 23.24 80.6624 22.68 79.5691 22.68C79.0624 22.68 78.6224 22.84 78.2491 23.16C77.9024 23.4533 77.7291 23.8933 77.7291 24.48V25.72H79.8891C80.7691 25.72 81.2091 25.2667 81.2091 24.36ZM105.662 35.92C103.982 36.9067 101.822 37.4 99.1822 37.4C96.5422 37.4 94.3155 36.5067 92.5022 34.72C90.6889 32.9067 89.7822 30.4133 89.7822 27.24C89.7822 24.04 90.6489 21.4667 92.3822 19.52C94.1422 17.5733 96.3555 16.6 99.0222 16.6C101.689 16.6 103.742 17.28 105.182 18.64C106.649 20 107.382 21.6533 107.382 23.6C107.382 27.92 104.902 30.08 99.9422 30.08H97.1822C97.1822 30.88 97.3955 31.44 97.8222 31.76C98.2755 32.0533 98.9289 32.2 99.7822 32.2C101.649 32.2 103.422 31.7733 105.102 30.92C105.129 30.8933 105.249 31.08 105.462 31.48C106.102 32.6267 106.422 33.6 106.422 34.4C106.422 35.1733 106.169 35.68 105.662 35.92ZM100.662 24.36C100.662 23.24 100.116 22.68 99.0222 22.68C98.5155 22.68 98.0755 22.84 97.7022 23.16C97.3555 23.4533 97.1822 23.8933 97.1822 24.48V25.72H99.3422C100.222 25.72 100.662 25.2667 100.662 24.36ZM110.195 35.16V11.16C110.195 10.4933 110.355 9.97333 110.675 9.6C111.022 9.2 111.462 9 111.995 9H118.675C122.915 9 126.129 10.0667 128.315 12.2C130.529 14.3333 131.635 17.6933 131.635 22.28C131.635 32.0933 127.449 37 119.075 37H112.235C110.875 37 110.195 36.3867 110.195 35.16ZM117.875 16.6V28.56C117.875 29.12 117.915 29.48 117.995 29.64C118.075 29.7733 118.315 29.84 118.715 29.84C120.182 29.84 121.289 29.2933 122.035 28.2C122.809 27.1067 123.195 25.2933 123.195 22.76C123.195 20.2 122.795 18.5333 121.995 17.76C121.222 16.9867 119.982 16.6 118.275 16.6H117.875ZM143.404 36.96C143.404 37.1467 142.19 37.24 139.764 37.24C137.337 37.1867 136.124 37.08 136.124 36.92V23.64H135.044C134.617 23.64 134.27 23.3867 134.004 22.88C133.764 22.3467 133.644 21.6933 133.644 20.92C133.644 18.04 134.497 16.6 136.204 16.6C137.404 16.6 138.404 16.9733 139.204 17.72C140.004 18.44 140.404 19.2667 140.404 20.2C140.964 19.1067 141.71 18.24 142.644 17.6C143.604 16.9333 144.577 16.6 145.564 16.6C147.11 16.6 148.044 17 148.364 17.8C148.444 18.0133 148.484 18.3333 148.484 18.76C148.484 19.16 148.35 19.8933 148.084 20.96C147.844 22.0267 147.59 22.8 147.324 23.28C147.057 23.76 146.897 24 146.844 24C146.79 24 146.537 23.9067 146.084 23.72C145.657 23.5067 145.27 23.4 144.924 23.4C143.91 23.4 143.404 24.2 143.404 25.8V36.96ZM157.823 36.76C157.823 36.9733 156.596 37.08 154.143 37.08C151.716 37.08 150.503 36.9867 150.503 36.8V17.16C150.503 16.9733 151.716 16.88 154.143 16.88C156.596 16.88 157.823 16.96 157.823 17.12V36.76ZM157.823 14.76C157.823 14.9467 156.596 15.04 154.143 15.04C151.716 15.04 150.503 14.96 150.503 14.8V9.04C150.503 8.77333 151.716 8.64 154.143 8.64C156.596 8.64 157.823 8.72 157.823 8.88V14.76ZM159.881 17.12C159.801 16.9067 161.041 16.8 163.601 16.8C166.187 16.8 167.481 16.8667 167.481 17L170.361 30.6L172.521 17.2C172.601 16.96 173.921 16.84 176.481 16.84C179.067 16.84 180.321 16.9467 180.241 17.16L174.601 36.72C174.414 36.9867 172.827 37.12 169.841 37.12C166.854 37.12 165.254 36.92 165.041 36.52L159.881 17.12ZM197.42 35.92C195.74 36.9067 193.58 37.4 190.94 37.4C188.3 37.4 186.073 36.5067 184.26 34.72C182.447 32.9067 181.54 30.4133 181.54 27.24C181.54 24.04 182.407 21.4667 184.14 19.52C185.9 17.5733 188.113 16.6 190.78 16.6C193.447 16.6 195.5 17.28 196.94 18.64C198.407 20 199.14 21.6533 199.14 23.6C199.14 27.92 196.66 30.08 191.7 30.08H188.94C188.94 30.88 189.153 31.44 189.58 31.76C190.033 32.0533 190.687 32.2 191.54 32.2C193.407 32.2 195.18 31.7733 196.86 30.92C196.887 30.8933 197.007 31.08 197.22 31.48C197.86 32.6267 198.18 33.6 198.18 34.4C198.18 35.1733 197.927 35.68 197.42 35.92ZM192.42 24.36C192.42 23.24 191.873 22.68 190.78 22.68C190.273 22.68 189.833 22.84 189.46 23.16C189.113 23.4533 188.94 23.8933 188.94 24.48V25.72H191.1C191.98 25.72 192.42 25.2667 192.42 24.36ZM210.513 36.96C210.513 37.1467 209.3 37.24 206.873 37.24C204.446 37.1867 203.233 37.08 203.233 36.92V23.64H202.153C201.726 23.64 201.38 23.3867 201.113 22.88C200.873 22.3467 200.753 21.6933 200.753 20.92C200.753 18.04 201.606 16.6 203.313 16.6C204.513 16.6 205.513 16.9733 206.313 17.72C207.113 18.44 207.513 19.2667 207.513 20.2C208.073 19.1067 208.82 18.24 209.753 17.6C210.713 16.9333 211.686 16.6 212.673 16.6C214.22 16.6 215.153 17 215.473 17.8C215.553 18.0133 215.593 18.3333 215.593 18.76C215.593 19.16 215.46 19.8933 215.193 20.96C214.953 22.0267 214.7 22.8 214.433 23.28C214.166 23.76 214.006 24 213.953 24C213.9 24 213.646 23.9067 213.193 23.72C212.766 23.5067 212.38 23.4 212.033 23.4C211.02 23.4 210.513 24.2 210.513 25.8V36.96Z" fill="#FF7E00"/>
<path d="M216.574 26.2851C215.528 23.407 211.456 16.8973 204.172 14.5111C207.438 17.6508 213.853 23.721 216.574 26.2851Z" fill="#FFF8D8" stroke="black" stroke-width="0.1"/>
<path d="M204.101 14.418L215.609 14.1916L216.75 26.3537C213.019 19.5653 210.323 16.8207 204.101 14.418Z" fill="#0094DF" stroke="black" stroke-width="0.1"/>
<path d="M204.101 14.418L215.609 14.1916L216.75 26.3537C213.019 19.5653 210.323 16.8207 204.101 14.418Z" fill="#0094DF" stroke="black" stroke-width="0.1"/>
<path d="M215.632 14.2218L215.004 23.3023" stroke="black" stroke-width="0.1"/>
<path d="M215.564 14.2588L212.795 20.3228" stroke="black" stroke-width="0.1"/>
<path d="M215.632 14.1783L211.2 18.587" stroke="black" stroke-width="0.1"/>
<path d="M215.632 14.2776L209.455 17.1455" stroke="black" stroke-width="0.1"/>
<path d="M215.6 14.2515L206.161 15.315" stroke="black" stroke-width="0.1"/>
<path d="M205.114 14.9821C205.166 19.0114 207.375 26.6932 215.789 25.1862" stroke="#0094DF" stroke-width="0.3"/>
</svg>
